<?xml version="1.0" encoding="UTF-8" standalone="no" ?>
<!DOCTYPE svg PUBLIC "-//W3C//DTD SVG 1.1//EN" "http://www.w3.org/Graphics/SVG/1.1/DTD/svg11.dtd">
<svg xmlns="http://www.w3.org/2000/svg" xmlns:xlink="http://www.w3.org/1999/xlink" version="1.1" width="500" height="500" viewBox="0 0 500 500" xml:space="preserve">
<desc>Created with Fabric.js 3.6.3</desc>
<defs>
</defs>
<g transform="matrix(2.052510493575884 0 0 2.052510493575884 250 196.9274231041298)"  >
<g style=""   >
		<g transform="matrix(1 0 0 1 -1.5 0.8999999999999986)"  >
<circle style="stroke: none; stroke-width: 1; stroke-dasharray: none; stroke-linecap: butt; stroke-dashoffset: 0; stroke-linejoin: miter; stroke-miterlimit: 4; fill: rgb(26,109,175); fill-rule: nonzero; opacity: 1;"  cx="0" cy="0" r="55.6" />
</g>
		<g transform="matrix(1 0 0 1 -12.200000000000003 48.05)"  >
<line style="stroke: rgb(253,205,18); stroke-width: 2; stroke-dasharray: none; stroke-linecap: round; stroke-dashoffset: 0; stroke-linejoin: round; stroke-miterlimit: 10; fill: none; fill-rule: nonzero; opacity: 1;"  x1="-10.700000000000003" y1="9.550000000000004" x2="10.700000000000003" y2="-9.550000000000004" />
</g>
		<g transform="matrix(1 0 0 1 3.899999999999988 -48.650000000000006)"  >
<line style="stroke: rgb(253,205,18); stroke-width: 2; stroke-dasharray: none; stroke-linecap: round; stroke-dashoffset: 0; stroke-linejoin: round; stroke-miterlimit: 10; fill: none; fill-rule: nonzero; opacity: 1;"  x1="-11.2" y1="8.95" x2="11.2" y2="-8.95" />
</g>
		<g transform="matrix(1 0 0 1 46.45 3.949999999999992)"  >
<line style="stroke: rgb(253,205,18); stroke-width: 2; stroke-dasharray: none; stroke-linecap: round; stroke-dashoffset: 0; stroke-linejoin: round; stroke-miterlimit: 10; fill: none; fill-rule: nonzero; opacity: 1;"  x1="-11.25" y1="8.95" x2="11.25" y2="-8.95" />
</g>
		<g transform="matrix(1 0 0 1 45.55 -13.25)"  >
<line style="stroke: rgb(244,94,172); stroke-width: 2; stroke-dasharray: none; stroke-linecap: round; stroke-dashoffset: 0; stroke-linejoin: round; stroke-miterlimit: 10; fill: none; fill-rule: nonzero; opacity: 1;"  x1="-9.950000000000003" y1="8.850000000000001" x2="9.950000000000003" y2="-8.850000000000001" />
</g>
		<g transform="matrix(1 0 0 1 -37.45 43.849999999999994)"  >
<line style="stroke: rgb(26,109,175); stroke-width: 2; stroke-dasharray: none; stroke-linecap: round; stroke-dashoffset: 0; stroke-linejoin: round; stroke-miterlimit: 10; fill: none; fill-rule: nonzero; opacity: 1;"  x1="-9.95" y1="8.850000000000001" x2="9.95" y2="-8.850000000000001" />
</g>
		<g transform="matrix(1 0 0 1 -47.400000000000006 11.800000000000008)"  >
<line style="stroke: rgb(244,94,172); stroke-width: 2; stroke-dasharray: none; stroke-linecap: round; stroke-dashoffset: 0; stroke-linejoin: round; stroke-miterlimit: 10; fill: none; fill-rule: nonzero; opacity: 1;"  x1="-10.3" y1="8.500000000000004" x2="10.3" y2="-8.500000000000004" />
</g>
		<g transform="matrix(1 0 0 1 27.45000000000001 -44.150000000000006)"  >
<line style="stroke: rgb(244,94,172); stroke-width: 2; stroke-dasharray: none; stroke-linecap: round; stroke-dashoffset: 0; stroke-linejoin: round; stroke-miterlimit: 10; fill: none; fill-rule: nonzero; opacity: 1;"  x1="-10.449999999999996" y1="8.25" x2="10.449999999999996" y2="-8.25" />
</g>
		<g transform="matrix(1 0 0 1 -44 -33.300000000000004)"  >
<line style="stroke: rgb(244,94,172); stroke-width: 2; stroke-dasharray: none; stroke-linecap: round; stroke-dashoffset: 0; stroke-linejoin: round; stroke-miterlimit: 10; fill: none; fill-rule: nonzero; opacity: 1;"  x1="-10.2" y1="8.6" x2="10.2" y2="-8.6" />
</g>
		<g transform="matrix(1 0 0 1 -34.7 14.550000000000008)"  >
<line style="stroke: rgb(37,171,190); stroke-width: 2; stroke-dasharray: none; stroke-linecap: round; stroke-dashoffset: 0; stroke-linejoin: round; stroke-miterlimit: 10; fill: none; fill-rule: nonzero; opacity: 1;"  x1="-20.6" y1="18.05" x2="20.6" y2="-18.05" />
</g>
		<g transform="matrix(1 0 0 1 36.74999999999998 31.049999999999997)"  >
<line style="stroke: rgb(37,171,190); stroke-width: 2; stroke-dasharray: none; stroke-linecap: round; stroke-dashoffset: 0; stroke-linejoin: round; stroke-miterlimit: 10; fill: none; fill-rule: nonzero; opacity: 1;"  x1="-20.65" y1="18.050000000000004" x2="20.65" y2="-18.050000000000004" />
</g>
		<g transform="matrix(1 0 0 1 26.85000000000001 33.749999999999986)"  >
<path style="stroke: none; stroke-width: 1; stroke-dasharray: none; stroke-linecap: butt; stroke-dashoffset: 0; stroke-linejoin: miter; stroke-miterlimit: 4; fill: rgb(37,171,190); fill-rule: nonzero; opacity: 1;"  transform=" translate(-85.55000000000001, -92.35)" d="M 111.9 69.7 L 59.2 115 C 85.5 114.1 107.2 94.9 111.9 69.7 z" stroke-linecap="round" />
</g>
		<g transform="matrix(1 0 0 1 21.450000000000003 27.9)"  >
<path style="stroke: none; stroke-width: 1; stroke-dasharray: none; stroke-linecap: butt; stroke-dashoffset: 0; stroke-linejoin: miter; stroke-miterlimit: 4; fill: rgb(26,109,175); fill-rule: nonzero; opacity: 1;"  transform=" translate(-80.15, -86.5)" d="M 112.8 57.8 l -65.3 56.5 c 3.2 0.6 6.4 0.9 9.7 0.9 c 0.7 0 1.3 0 2 -0.1 l 52.6 -45.3 c 0.6 -3.3 1 -6.8 1 -10.3 C 112.8 58.9 112.8 58.3 112.8 57.8 z" stroke-linecap="round" />
</g>
		<g transform="matrix(1 0 0 1 17.10000000000001 21.70000000000001)"  >
<path style="stroke: none; stroke-width: 1; stroke-dasharray: none; stroke-linecap: butt; stroke-dashoffset: 0; stroke-linejoin: miter; stroke-miterlimit: 4; fill: rgb(253,205,18); fill-rule: nonzero; opacity: 1;"  transform=" translate(-75.80000000000001, -80.30000000000001)" d="M 38.9 112 c 3 1 6.1 1.8 9.3 2.4 l 64.5 -56.5 c -0.1 -4 -0.7 -7.9 -1.6 -11.7 L 38.9 112 z" stroke-linecap="round" />
</g>
		<g transform="matrix(1 0 0 1 8.849999999999994 12.999999999999993)"  >
<path style="stroke: none; stroke-width: 1; stroke-dasharray: none; stroke-linecap: butt; stroke-dashoffset: 0; stroke-linejoin: miter; stroke-miterlimit: 4; fill: rgb(244,94,172); fill-rule: nonzero; opacity: 1;"  transform=" translate(-67.55, -71.6)" d="M 105.1 31.2 L 24 104.1 c 4.5 3.4 9.5 6 14.9 7.9 l 72.2 -65.9 C 109.9 40.8 107.8 35.8 105.1 31.2 z" stroke-linecap="round" />
</g>
		<g transform="matrix(1 0 0 1 -27.000000000000004 -32.150000000000006)"  >
<path style="stroke: none; stroke-width: 1; stroke-dasharray: none; stroke-linecap: butt; stroke-dashoffset: 0; stroke-linejoin: miter; stroke-miterlimit: 4; fill: rgb(244,94,172); fill-rule: nonzero; opacity: 1;"  transform=" translate(-31.7, -26.45)" d="M 57.2 3.9 C 30.1 3.9 7.5 23.3 2.6 49 L 60.8 4 C 59.6 3.9 58.4 3.9 57.2 3.9 z" stroke-linecap="round" />
</g>
		<g transform="matrix(1 0 0 1 -0.45000000000000284 4)"  >
<path style="stroke: none; stroke-width: 1; stroke-dasharray: none; stroke-linecap: butt; stroke-dashoffset: 0; stroke-linejoin: miter; stroke-miterlimit: 4; fill: rgb(26,109,175); fill-rule: nonzero; opacity: 1;"  transform=" translate(-58.25, -62.6)" d="M 97.2 20.9 l -85.9 70 c 3.5 5.2 7.9 9.7 13 13.4 l 80.9 -73 C 102.9 27.5 100.2 24 97.2 20.9 z" stroke-linecap="round" />
</g>
		<g transform="matrix(1 0 0 1 -15.949999999999996 -23.3)"  >
<path style="stroke: none; stroke-width: 1; stroke-dasharray: none; stroke-linecap: butt; stroke-dashoffset: 0; stroke-linejoin: miter; stroke-miterlimit: 4; fill: rgb(26,109,175); fill-rule: nonzero; opacity: 1;"  transform=" translate(-42.75000000000001, -35.3)" d="M 68.9 5.1 l -67.1 52 l -0.1 0.1 c 0 0.8 -0.1 1.5 -0.1 2.3 c 0 2 0.1 4.1 0.3 6 l 82 -54.8 C 79.3 8.1 74.2 6.2 68.9 5.1 z" stroke-linecap="round" />
</g>
		<g transform="matrix(1 0 0 1 -7.350000000000001 -6.000000000000007)"  >
<path style="stroke: none; stroke-width: 1; stroke-dasharray: none; stroke-linecap: butt; stroke-dashoffset: 0; stroke-linejoin: miter; stroke-miterlimit: 4; fill: rgb(37,171,190); fill-rule: nonzero; opacity: 1;"  transform=" translate(-51.35, -52.599999999999994)" d="M 89.8 14.4 L 5.5 80 c 1.5 3.8 3.5 7.5 5.8 10.8 l 85.9 -70 C 94.9 18.5 92.5 16.4 89.8 14.4 z" stroke-linecap="round" />
</g>
		<g transform="matrix(1 0 0 1 -12.850000000000001 -13.250000000000007)"  >
<path style="stroke: none; stroke-width: 1; stroke-dasharray: none; stroke-linecap: butt; stroke-dashoffset: 0; stroke-linejoin: miter; stroke-miterlimit: 4; fill: rgb(244,94,172); fill-rule: nonzero; opacity: 1;"  transform=" translate(-45.85, -45.349999999999994)" d="M 83.9 10.7 l -82 54.8 c 0.5 5.1 1.8 9.9 3.6 14.5 l 84.3 -65.6 C 87.9 13.1 86 11.8 83.9 10.7 z" stroke-linecap="round" />
</g>
		<g transform="matrix(1 0 0 1 -22.75 -27.150000000000002)"  >
<path style="stroke: none; stroke-width: 1; stroke-dasharray: none; stroke-linecap: butt; stroke-dashoffset: 0; stroke-linejoin: miter; stroke-miterlimit: 4; fill: rgb(253,205,18); fill-rule: nonzero; opacity: 1;"  transform=" translate(-35.95, -31.45)" d="M 60 3.9 l -55.3 37 c -2 5.7 -3.1 11.7 -3.2 18.1 L 70.4 5.4 C 67 4.6 63.6 4.1 60 3.9 z" stroke-linecap="round" />
</g>
</g>
</g>
<g transform="matrix(1 0 0 1 251.00827105731798 419.4013688630656)" style=""  ><path fill="#000000" opacity="1" d="M-138.59 7.38L-138.59-7.89L-133.42-7.89Q-130.81-7.89-129.14-6.64Q-127.48-5.38-127.48-3.19L-127.48-3.19Q-127.48-0.94-129.12 0.33Q-130.77 1.60-133.42 1.60L-133.42 1.60L-136.83 1.60L-136.83 7.38L-138.59 7.38ZM-133.77-6.39L-136.83-6.39L-136.83 0.07L-133.77 0.07Q-129.24 0.07-129.24-3.19L-129.24-3.19Q-129.24-6.39-133.77-6.39L-133.77-6.39Z"/><path fill="#000000" opacity="1" d="M-119.72 0.57L-119.72-7.89L-117.96-7.89L-117.96 0.73Q-117.96 3.43-116.75 4.81Q-115.54 6.18-113.38 6.18Q-111.21 6.18-109.99 4.81Q-108.77 3.43-108.77 0.73L-108.77 0.73L-108.77-7.89L-107.01-7.89L-107.01 0.57Q-107.01 4.14-108.69 5.91Q-110.37 7.69-113.38 7.69Q-116.38 7.69-118.05 5.93Q-119.72 4.16-119.72 0.57L-119.72 0.57Z"/><path fill="#000000" opacity="1" d="M-88.75 7.38L-98.66 7.38L-98.66-7.89L-89.10-7.89L-89.10-6.39L-96.90-6.39L-96.90-1.34L-89.88-1.34L-89.88 0.17L-96.90 0.17L-96.90 5.85L-88.75 5.85L-88.75 7.38Z"/><path fill="#000000" opacity="1" d="M-80.76 7.38L-80.76-7.89L-74.77-7.89Q-72.46-7.89-71.02-6.75Q-69.57-5.61-69.57-3.66L-69.57-3.66Q-69.57-2.32-70.50-1.22Q-71.43-0.11-73.12 0.33L-73.12 0.33L-68.49 7.38L-70.63 7.38L-74.91 0.64L-79.00 0.64L-79.00 7.38L-80.76 7.38ZM-75.12-6.39L-79.00-6.39L-79.00-0.89L-75.09-0.89Q-73.40-0.89-72.37-1.61Q-71.33-2.32-71.33-3.66L-71.33-3.66Q-71.33-6.39-75.12-6.39L-75.12-6.39Z"/><path fill="#000000" opacity="1" d="M-57.68-6.39L-62.38-6.39L-62.38-7.89L-51.22-7.89L-51.22-6.39L-55.92-6.39L-55.92 7.38L-57.68 7.38L-57.68-6.39Z"/><path fill="#000000" opacity="1" d="M-41.48-4.93Q-43.35-3.17-43.35-0.26Q-43.35 2.66-41.48 4.42Q-39.61 6.18-36.93 6.18Q-34.25 6.18-32.38 4.42Q-30.51 2.66-30.51-0.26Q-30.51-3.17-32.38-4.93Q-34.25-6.69-36.93-6.69Q-39.61-6.69-41.48-4.93ZM-28.75-0.26L-28.75-0.26Q-28.75 3.25-31.09 5.47Q-33.43 7.69-36.93 7.69L-36.93 7.69Q-40.46 7.69-42.78 5.48Q-45.11 3.27-45.11-0.26L-45.11-0.26Q-45.11-3.76-42.77-5.98Q-40.43-8.20-36.93-8.20L-36.93-8.20Q-33.41-8.20-31.08-5.99Q-28.75-3.78-28.75-0.26Z"/><path fill="#000000" opacity="1" d=""/><path fill="#000000" opacity="1" d="M5.30-7.89L-0.90 7.38L-3.33 7.38L-9.60-7.89L-7.65-7.89L-2.24 5.69L-1.84 5.69L3.47-7.89L5.30-7.89Z"/><path fill="#000000" opacity="1" d="M10.12 7.38L16.72-7.89L18.79-7.89L25.37 7.38L23.51 7.38L21.33 2.24L14.06 2.24L11.93 7.38L10.12 7.38ZM17.87-6.08L17.54-6.08L14.68 0.78L20.72 0.78L17.87-6.08Z"/><path fill="#000000" opacity="1" d="M34.65-7.89L34.65 5.85L42.03 5.85L42.03 7.38L32.89 7.38L32.89-7.89L34.65-7.89Z"/><path fill="#000000" opacity="1" d="M51.78-7.89L51.78 5.85L59.16 5.85L59.16 7.38L50.02 7.38L50.02-7.89L51.78-7.89Z"/><path fill="#000000" opacity="1" d="M66.21 7.38L72.81-7.89L74.88-7.89L81.46 7.38L79.61 7.38L77.42 2.24L70.16 2.24L68.02 7.38L66.21 7.38ZM73.97-6.08L73.64-6.08L70.77 0.78L76.81 0.78L73.97-6.08Z"/><path fill="#000000" opacity="1" d="M88.98 7.38L88.98-7.89L94.98-7.89Q97.28-7.89 98.72-6.75Q100.17-5.61 100.17-3.66L100.17-3.66Q100.17-2.32 99.24-1.22Q98.31-0.11 96.62 0.33L96.62 0.33L101.25 7.38L99.11 7.38L94.83 0.64L90.75 0.64L90.75 7.38L88.98 7.38ZM94.62-6.39L90.75-6.39L90.75-0.89L94.65-0.89Q96.34-0.89 97.37-1.61Q98.41-2.32 98.41-3.66L98.41-3.66Q98.41-6.39 94.62-6.39L94.62-6.39Z"/><path fill="#000000" opacity="1" d="M112.06-6.39L107.36-6.39L107.36-7.89L118.52-7.89L118.52-6.39L113.82-6.39L113.82 7.38L112.06 7.38L112.06-6.39Z"/><path fill="#000000" opacity="1" d="M124.28 7.38L130.88-7.89L132.95-7.89L139.53 7.38L137.67 7.38L135.49 2.24L128.23 2.24L126.09 7.38L124.28 7.38ZM132.03-6.08L131.71-6.08L128.84 0.78L134.88 0.78L132.03-6.08Z"/></g><g transform="matrix(1 0 0 1 250 363.6392378590738)" style=""  ><path fill="#000000" opacity="1" d="M-236.58 19.89L-236.58-21.26L-222.28-21.26Q-216.33-21.26-212.59-18.66Q-208.86-16.07-208.86-10.88L-208.86-10.88Q-208.86-8.47-209.97-6.19Q-211.07-3.92-213.10-2.65L-213.10-2.65L-213.10-2.40Q-209.68-1.13-207.81 1.50Q-205.95 4.12-205.95 7.60L-205.95 7.60Q-205.95 13.05-209.84 16.47Q-213.73 19.89-220.25 19.89L-220.25 19.89L-236.58 19.89ZM-220.25 0.01L-231.90 0.01L-231.90 15.83L-220.82 15.83Q-216.14 15.83-213.38 13.84Q-210.63 11.85-210.63 7.86L-210.63 7.86Q-210.63 0.01-220.25 0.01L-220.25 0.01ZM-221.77-17.40L-231.90-17.40L-231.90-3.79L-220.95-3.79Q-217.34-3.79-215.44-5.66Q-213.54-7.52-213.54-10.69L-213.54-10.69Q-213.54-13.92-215.73-15.66Q-217.91-17.40-221.77-17.40L-221.77-17.40Z"/><path fill="#000000" opacity="1" d="M-162.21 19.89L-188.92 19.89L-188.92-21.26L-163.16-21.26L-163.16-17.21L-184.17-17.21L-184.17-3.60L-165.24-3.60L-165.24 0.45L-184.17 0.45L-184.17 15.77L-162.21 15.77L-162.21 19.89Z"/><path fill="#000000" opacity="1" d="M-118.97-18.73L-118.97-18.73L-121.00-14.99Q-125.94-18.09-131.89-18.09L-131.89-18.09Q-136.32-18.09-138.47-16.13Q-140.62-14.17-140.62-11.51L-140.62-11.51Q-140.62-8.92-138.91-7.27Q-137.20-5.62-133.40-4.87L-133.40-4.87L-127.39-3.60Q-116.50-1.32-116.50 8.55L-116.50 8.55Q-116.50 13.74-120.59 17.23Q-124.67 20.71-132.27 20.71L-132.27 20.71Q-136.63 20.71-139.77 19.95Q-142.90 19.19-146.44 17.35L-146.44 17.35L-144.80 13.05Q-138.72 16.53-132.39 16.53L-132.39 16.53Q-126.57 16.53-123.88 14.35Q-121.19 12.16-121.19 8.62L-121.19 8.62Q-121.19 5.14-123.09 3.27Q-124.99 1.40-129.48 0.45L-129.48 0.45L-136.13-0.94Q-140.18-1.76-142.65-4.42Q-145.12-7.08-145.12-11.26L-145.12-11.26Q-145.12-16.07-141.60-19.08Q-138.09-22.08-131.89-22.08L-131.89-22.08Q-124.42-22.08-118.97-18.73Z"/><path fill="#000000" opacity="1" d="M-90.30-17.21L-102.96-17.21L-102.96-21.26L-72.89-21.26L-72.89-17.21L-85.55-17.21L-85.55 19.89L-90.30 19.89L-90.30-17.21Z"/><path fill="#000000" opacity="1" d=""/><path fill="#000000" opacity="1" d="M-16.36-17.21L-29.02-17.21L-29.02-21.26L1.04-21.26L1.04-17.21L-11.62-17.21L-11.62 19.89L-16.36 19.89L-16.36-17.21Z"/><path fill="#000000" opacity="1" d="M17.76 19.89L17.76-21.26L33.90-21.26Q40.10-21.26 43.99-18.19Q47.89-15.12 47.89-9.87L47.89-9.87Q47.89-6.26 45.39-3.28Q42.89-0.31 38.33 0.90L38.33 0.90L50.80 19.89L45.04 19.89L33.52 1.72L22.50 1.72L22.50 19.89L17.76 19.89ZM32.95-17.21L22.50-17.21L22.50-2.40L33.01-2.40Q37.57-2.40 40.35-4.33Q43.14-6.26 43.14-9.87L43.14-9.87Q43.14-17.21 32.95-17.21L32.95-17.21Z"/><path fill="#000000" opacity="1" d="M64.34 19.89L82.13-21.26L87.70-21.26L105.43 19.89L100.43 19.89L94.54 6.02L74.98 6.02L69.22 19.89L64.34 19.89ZM85.23-16.39L84.35-16.39L76.62 2.10L92.89 2.10L85.23-16.39Z"/><path fill="#000000" opacity="1" d="M154.04-21.26L137.33 19.89L130.81 19.89L113.91-21.26L119.16-21.26L133.72 15.33L134.80 15.33L149.10-21.26L154.04-21.26Z"/><path fill="#000000" opacity="1" d="M196.20 19.89L169.49 19.89L169.49-21.26L195.25-21.26L195.25-17.21L174.23-17.21L174.23-3.60L193.16-3.60L193.16 0.45L174.23 0.45L174.23 15.77L196.20 15.77L196.20 19.89Z"/><path fill="#000000" opacity="1" d="M217.97-21.26L217.97 15.77L237.85 15.77L237.85 19.89L213.23 19.89L213.23-21.26L217.97-21.26Z"/></g><g transform="matrix(2.094002010886741 0 0 2.094002010886741 247.31130496489254 198.27177062168346)"  >
<circle style="stroke: none; stroke-width: 0; stroke-dasharray: none; stroke-linecap: butt; stroke-dashoffset: 0; stroke-linejoin: miter; stroke-miterlimit: 4; fill: rgb(255,255,255); fill-rule: evenodd; opacity: 1;"  cx="0" cy="0" r="47.0059" />
</g>
<g transform="matrix(1.4255463872427032 0 0 1.425546387242703 247.31130496489254 198.27177062168346)"  >
<g style=""   >
		<g transform="matrix(1 0 0 1 -3.413499999999999 16.868499999999994)"  >
<path style="stroke: none; stroke-width: 1; stroke-dasharray: none; stroke-linecap: butt; stroke-dashoffset: 0; stroke-linejoin: miter; stroke-miterlimit: 4; fill: rgb(0,0,0); fill-rule: nonzero; opacity: 1;"  transform=" translate(-41.0865, -61.3685)" d="M 65.488 65.37 c -0.571 0.471 -1.272 0.724 -1.988 0.741 c -0.424 0.009 -0.85 -0.063 -1.255 -0.223 c -0.492 -0.195 -0.905 -0.517 -1.24 -0.899 c -3.28 4.264 -7.92 7.411 -13.282 8.8 c 2.99 -2.082 5.463 -5.671 7.121 -10.209 h 5.453 c -0.021 -0.096 -0.063 -0.182 -0.074 -0.279 l -0.285 -2.165 H 55.63 c 0.841 -2.991 1.343 -6.308 1.438 -9.836 h 1.574 l -0.322 -2.444 h -1.252 c -0.045 -1.637 -0.187 -3.225 -0.396 -4.757 c -0.779 0.217 -1.588 0.431 -2.39 0.645 c 0.174 1.336 0.302 2.7 0.344 4.112 h -8.61 L 45.52 51.3 h 9.105 c -0.104 3.541 -0.639 6.884 -1.537 9.836 H 42.795 v -5.401 l -1.252 0.875 c -0.363 0.257 -0.772 0.399 -1.192 0.486 v 4.04 H 30.058 c -0.439 -1.446 -0.79 -2.989 -1.047 -4.6 c -0.267 0.108 -0.542 0.217 -0.804 0.329 c -0.524 0.223 -0.992 0.445 -1.49 0.668 c 0.219 1.238 0.477 2.451 0.798 3.603 h -7.807 v -0.002 c -0.703 0.429 -1.374 0.857 -1.996 1.292 c -0.491 0.346 -0.938 0.686 -1.361 1.023 c 4.805 9.025 14.303 15.189 25.221 15.189 c 10.239 0 19.208 -5.433 24.25 -13.549 L 65.488 65.37 z M 21.114 63.58 h 7.188 c 1.661 4.538 4.13 8.127 7.121 10.209 C 29.482 72.252 24.412 68.564 21.114 63.58 z M 40.351 73.266 c -3.883 -0.645 -7.27 -4.322 -9.421 -9.686 h 9.421 V 73.266 z M 42.795 63.58 h 9.421 c -2.149 5.361 -5.54 9.041 -9.421 9.686 V 63.58 z" stroke-linecap="round" />
</g>
		<g transform="matrix(1 0 0 1 15.237499999999994 -7.382000000000005)"  >
<path style="stroke: none; stroke-width: 1; stroke-dasharray: none; stroke-linecap: butt; stroke-dashoffset: 0; stroke-linejoin: miter; stroke-miterlimit: 4; fill: rgb(0,0,0); fill-rule: nonzero; opacity: 1;"  transform=" translate(-59.7375, -37.117999999999995)" d="M 87.363 24.459 c -3.995 -2.627 -12.348 -0.773 -21.615 2.803 L 49.466 11.36 l -5.485 0.188 L 57.07 30.955 c -5.385 2.476 -10.719 5.232 -15.396 7.779 l -6.756 -5.102 l -2.806 0.327 l 6.977 8.789 l 0.601 11.208 l 2.317 -1.617 l 1.677 -8.297 c 5.19 -1.188 11.015 -2.66 16.687 -4.372 l 3.053 23.206 l 4.232 -3.495 l 1.654 -22.695 C 78.628 33.219 86.111 29.072 87.363 24.459 z" stroke-linecap="round" />
</g>
		<g transform="matrix(1 0 0 1 -11.634 -10.888499999999992)"  >
<path style="stroke: none; stroke-width: 1; stroke-dasharray: none; stroke-linecap: butt; stroke-dashoffset: 0; stroke-linejoin: miter; stroke-miterlimit: 4; fill: rgb(0,0,0); fill-rule: nonzero; opacity: 1;"  transform=" translate(-32.866, -33.61150000000001)" d="M 48.527 24.071 l -1.348 -1.999 c -1.819 -0.362 -3.688 -0.56 -5.61 -0.56 c -14.262 0 -26.082 10.519 -28.192 24.199 c 1.755 -1.324 3.46 -2.488 5.021 -3.501 c 0.37 -1.097 0.789 -2.173 1.308 -3.194 h 3.933 c 1.418 -0.817 2.874 -1.633 4.406 -2.444 h -6.933 c 3.296 -4.984 8.368 -8.671 14.31 -10.209 c -1.592 1.11 -3.032 2.657 -4.287 4.538 c 0.197 -0.063 0.393 -0.13 0.604 -0.153 l 2.806 -0.327 c 0.017 -0.001 0.037 0 0.052 -0.001 c 1.697 -1.917 3.647 -3.184 5.752 -3.532 v 6.794 l 1.615 1.221 c 0.282 -0.151 0.549 -0.284 0.829 -0.435 v -7.58 c 2.373 0.393 4.56 1.933 6.396 4.285 l 3.166 -1.505 L 48.527 24.071 z" stroke-linecap="round" />
</g>
		<g transform="matrix(1 0 0 1 -25.049000000000003 13.061543700152427)"  >
<path style="stroke: none; stroke-width: 1; stroke-dasharray: none; stroke-linecap: butt; stroke-dashoffset: 0; stroke-linejoin: miter; stroke-miterlimit: 4; fill: rgb(0,0,0); fill-rule: nonzero; opacity: 1;"  transform=" translate(-19.450999999999997, -57.56154370015243)" d="M 35.919 43.951 l -4.397 -5.538 c -2.987 1.531 -6.322 3.345 -9.807 5.517 c -3.892 2.446 -7.978 5.27 -11.725 8.869 c -1.86 1.813 -3.648 3.828 -5.098 6.258 c -0.717 1.217 -1.339 2.549 -1.767 3.991 c -0.115 0.353 -0.192 0.733 -0.28 1.101 c -0.047 0.183 -0.069 0.375 -0.104 0.563 l -0.102 0.681 l -0.003 0.832 l 0.023 1.226 c 0.107 1.477 0.501 3.049 1.285 4.42 c 0.766 1.383 1.916 2.446 3.06 3.128 c 2.327 1.363 4.509 1.586 6.388 1.697 c 3.773 0.115 6.669 -0.5 8.695 -0.902 c 0.631 -0.134 1.162 -0.256 1.612 -0.361 c -5.88 -0.309 -9.543 -1.719 -11.51 -2.787 c -0.562 -0.285 -1.083 -0.605 -1.528 -0.977 c -0.205 -0.159 -0.317 -0.263 -0.317 -0.263 l 0.038 -0.003 c -0.121 -0.115 -0.262 -0.223 -0.364 -0.346 c -0.886 -1.059 -0.909 -2.021 -0.595 -3.401 c 0.054 -0.142 0.101 -0.271 0.14 -0.405 l 0.239 -0.799 l 0.008 -0.023 c 0.022 -0.125 -0.022 0.141 -0.016 0.106 l 0.013 -0.028 l 0.022 -0.063 l 0.044 -0.121 c 0.033 -0.079 0.051 -0.159 0.092 -0.242 c 0.079 -0.163 0.133 -0.326 0.228 -0.491 c 0.332 -0.663 0.786 -1.338 1.348 -2.008 c 1.127 -1.343 2.652 -2.629 4.323 -3.804 c 3.372 -2.351 7.309 -4.276 11.085 -5.885 c 3.284 -1.394 6.455 -2.523 9.317 -3.473 L 35.919 43.951 z" stroke-linecap="round" />
</g>
</g>
</g>
</svg>